<svg width="166" height="48" fill="none" xmlns="http://www.w3.org/2000/svg"><path d="M31 4h124l11 20.5L155 44H31V4z" fill="#4434C9"/><path d="M35.711 3.715L47.423 24 35.71 44.285H12.29L.577 24 12.29 3.715h23.42z" fill="#fff" stroke="#4434C9"/><path d="M18 24l-3-5 3-5h12l3 5-6 10h-6l6-10h-6l-3 5z" fill="#4434C9"/><path opacity=".4" d="M30 24l3 5-3 5H18l-3-5 6-10h6l-6 10h6l3-5z" fill="#4434C9"/><path d="M61.438 17.91h2.397l4.168 10.175h.153l4.168-10.176h2.397V31h-1.88v-9.473h-.12l-3.862 9.454H67.3l-3.86-9.46h-.121V31h-1.88V17.91zm19.513 13.288c-.968 0-1.8-.207-2.5-.62a4.206 4.206 0 01-1.61-1.758c-.375-.758-.563-1.647-.563-2.665 0-1.006.188-1.892.563-2.66.379-.766.907-1.365 1.585-1.795.682-.43 1.478-.646 2.39-.646.554 0 1.091.092 1.611.275.52.183.987.47 1.4.863.413.392.74.901.978 1.527.239.623.358 1.379.358 2.27v.677h-7.805v-1.432h5.932c0-.503-.102-.948-.307-1.336a2.32 2.32 0 00-.863-.926c-.366-.226-.797-.34-1.29-.34-.538 0-1.007.133-1.407.397-.396.26-.703.601-.92 1.023a2.94 2.94 0 00-.32 1.361v1.119c0 .656.115 1.214.345 1.675.234.46.56.811.978 1.054.418.239.906.358 1.464.358.362 0 .692-.05.99-.153.299-.107.557-.264.774-.473.217-.209.384-.467.499-.773l1.808.326a3.263 3.263 0 01-.78 1.4 3.78 3.78 0 01-1.4.926c-.557.218-1.195.326-1.91.326zm7.524-6.027V31h-1.911v-9.818h1.834v1.598h.121c.226-.52.58-.938 1.062-1.253.485-.315 1.097-.473 1.834-.473.67 0 1.255.14 1.758.422.503.277.893.69 1.17 1.24.277.55.415 1.23.415 2.039V31h-1.911v-6.015c0-.712-.185-1.268-.556-1.668-.37-.405-.88-.608-1.528-.608a2.39 2.39 0 00-1.182.288 2.067 2.067 0 00-.812.844c-.196.366-.294.81-.294 1.33zm12.243 9.715c-.78 0-1.451-.102-2.014-.306-.558-.205-1.014-.476-1.368-.812a3.412 3.412 0 01-.792-1.106l1.643-.678c.115.188.268.386.46.595.196.213.46.394.792.543.337.15.77.224 1.298.224.724 0 1.323-.177 1.796-.53.473-.35.71-.908.71-1.675v-1.93h-.122a4.367 4.367 0 01-.498.696c-.213.256-.507.477-.882.665-.375.187-.863.281-1.464.281-.776 0-1.475-.181-2.097-.543-.618-.367-1.108-.906-1.47-1.617-.358-.716-.537-1.596-.537-2.64s.177-1.94.53-2.685c.359-.746.849-1.317 1.47-1.713.623-.4 1.328-.601 2.117-.601.609 0 1.101.102 1.476.307.375.2.667.434.876.703.213.268.377.505.492.71h.141v-1.592h1.873v10.035c0 .844-.196 1.537-.589 2.078-.392.54-.922.941-1.591 1.201-.665.26-1.415.39-2.25.39zm-.019-5.618c.549 0 1.014-.128 1.393-.384.384-.26.673-.63.869-1.112.201-.486.301-1.067.301-1.745 0-.66-.098-1.242-.294-1.745-.196-.503-.484-.895-.863-1.176-.379-.286-.848-.428-1.406-.428-.576 0-1.055.149-1.439.447-.383.294-.673.695-.869 1.202a4.777 4.777 0 00-.288 1.7c0 .643.099 1.208.294 1.694.197.486.486.865.87 1.138.388.272.865.409 1.432.409zm8.05-1.598l-.013-2.333h.332l3.912-4.155h2.288l-4.461 4.73h-.301l-1.757 1.758zM106.991 31V17.91h1.911V31h-1.911zm6.2 0l-3.516-4.666 1.317-1.336L115.537 31h-2.346zm6.927.198c-.968 0-1.801-.207-2.5-.62a4.214 4.214 0 01-1.611-1.758c-.375-.758-.562-1.647-.562-2.665 0-1.006.187-1.892.562-2.66.38-.766.908-1.365 1.586-1.795.681-.43 1.478-.646 2.39-.646.554 0 1.091.092 1.611.275.52.183.987.47 1.4.863.413.392.739.901.978 1.527.239.623.358 1.379.358 2.27v.677h-7.805v-1.432h5.932c0-.503-.102-.948-.307-1.336a2.314 2.314 0 00-.863-.926c-.366-.226-.797-.34-1.291-.34-.537 0-1.006.133-1.406.397a2.67 2.67 0 00-.921 1.023 2.953 2.953 0 00-.319 1.361v1.119c0 .656.115 1.214.345 1.675.234.46.56.811.978 1.054.418.239.905.358 1.464.358.362 0 .692-.05.99-.153.299-.107.557-.264.774-.473.217-.209.383-.467.498-.773l1.809.326a3.272 3.272 0 01-.779 1.4 3.786 3.786 0 01-1.4.926c-.559.218-1.196.326-1.911.326zM125.73 31v-9.818h1.848v1.56h.102c.179-.529.494-.944.946-1.247.456-.307.972-.46 1.547-.46a8.214 8.214 0 01.812.044v1.829a3.424 3.424 0 00-.409-.07 3.894 3.894 0 00-.588-.045c-.452 0-.855.096-1.209.287a2.13 2.13 0 00-1.137 1.924V31h-1.912zm10.069.198c-.968 0-1.801-.207-2.5-.62a4.206 4.206 0 01-1.61-1.758c-.375-.758-.563-1.647-.563-2.665 0-1.006.188-1.892.563-2.66.379-.766.907-1.365 1.585-1.795.682-.43 1.478-.646 2.39-.646.554 0 1.091.092 1.611.275.52.183.987.47 1.4.863.413.392.739.901.978 1.527.239.623.358 1.379.358 2.27v.677h-7.805v-1.432h5.932c0-.503-.102-.948-.307-1.336a2.314 2.314 0 00-.863-.926c-.366-.226-.797-.34-1.291-.34-.537 0-1.006.133-1.406.397a2.67 2.67 0 00-.921 1.023 2.953 2.953 0 00-.319 1.361v1.119c0 .656.115 1.214.345 1.675.234.46.56.811.978 1.054.418.239.906.358 1.464.358.362 0 .692-.05.991-.153.298-.107.556-.264.773-.473.217-.209.384-.467.499-.773l1.809.326a3.284 3.284 0 01-.78 1.4 3.786 3.786 0 01-1.4.926c-.558.218-1.195.326-1.911.326z" fill="#fff"/></svg>